<svg width="1452" height="438" viewBox="0 0 1452 438" fill="none" xmlns="http://www.w3.org/2000/svg">
<path d="M1203.14 250.555C1203.14 250.555 1212.21 323.931 1252.59 343.224C1307.29 369.363 1329.22 317.209 1329.22 317.209L1300.38 291.646C1300.38 291.646 1272.53 293.322 1257.34 276.105C1242.16 258.888 1233.5 241.177 1233.5 241.177L1203.14 250.555Z" fill="#F48462"/>
<path d="M1234.77 249.375C1234.77 249.375 1238.23 232.715 1229.55 223.407C1223.66 217.089 1207.49 210.304 1203.55 212.728C1199.6 215.152 1209.75 223.771 1209.75 223.771C1209.75 223.771 1191.98 211.9 1184.58 212.311C1177.17 212.723 1181.31 220.207 1181.31 220.207C1181.31 220.207 1174.01 215.838 1168.99 219.054C1163.97 222.272 1171.38 228.472 1171.38 228.472C1171.38 228.472 1162.02 227.155 1164.68 234.722C1167.34 242.288 1185.43 253.405 1195.65 256.878C1205.88 260.35 1210.34 260.47 1210.34 260.47L1234.77 249.375Z" fill="#F48462"/>
<path d="M1187.23 235.409C1186.97 235.409 1186.71 235.307 1186.51 235.106C1186.12 234.712 1186.13 234.083 1186.53 233.701C1193.76 226.78 1202.47 220.614 1202.56 220.553C1203.01 220.232 1203.64 220.339 1203.96 220.785C1204.28 221.233 1204.18 221.854 1203.73 222.172C1203.64 222.232 1195.05 228.315 1187.93 235.129C1187.74 235.316 1187.48 235.409 1187.23 235.409Z" fill="black"/>
<path d="M1221.83 243.132C1221.74 243.132 1221.65 243.121 1221.56 243.096C1211.35 240.332 1208.85 224.587 1208.75 223.919C1208.67 223.376 1209.05 222.871 1209.6 222.79C1210.14 222.7 1210.66 223.082 1210.74 223.625C1210.76 223.776 1213.14 238.759 1222.09 241.18C1222.63 241.325 1222.94 241.871 1222.79 242.401C1222.67 242.841 1222.27 243.132 1221.83 243.132Z" fill="black"/>
<path d="M1341.04 204.586C1341.04 204.586 1361.5 197.224 1374.25 214.009C1387 230.794 1385.5 303.23 1385.5 303.23L1330.08 306.201L1333.36 226.012L1341.04 204.586Z" fill="black"/>
<path d="M1310.94 280.768L1292.43 283.3C1292.43 283.3 1275.92 301.081 1275.48 320.877C1275.05 340.673 1271.38 390.649 1271.38 390.649C1271.38 390.649 1285.74 398.299 1313.43 401.149C1341.12 403.999 1374.25 392.935 1374.25 392.935C1374.25 392.935 1363.79 294.116 1363.79 285.811C1363.79 280.203 1310.94 280.768 1310.94 280.768Z" fill="#6876AA"/>
<path d="M673.853 405.358C673.853 405.358 725.002 412.528 746.314 402.833C767.627 393.139 755.613 337.406 755.613 337.406C755.613 337.406 744.038 261.071 727.432 259.444C710.826 257.817 696.168 259.873 696.168 259.873L675.683 324.74L673.853 405.358Z" fill="#A37B90"/>
<path d="M427.523 203.627C427.523 203.627 467.472 258.424 425.242 283.622C383.012 308.819 384.751 272.347 384.751 272.347L411.292 203.627H427.523Z" fill="black"/>
<path d="M384.309 259.683C384.309 259.683 362.478 262.771 348.343 288.182C334.209 313.593 322.34 383.656 324.506 385.869C326.672 388.082 373.819 394.719 412.906 394.719C451.993 394.719 464.242 393.244 468.011 391.031C471.78 388.818 455.664 286.214 434.019 276.698C412.377 267.182 407.536 252.074 384.309 259.683Z" fill="#6876AA"/>
<path d="M378.879 260.816C378.879 260.816 344.582 313.989 337.807 348.395C331.033 382.803 329.716 407.157 329.716 407.157L454.34 407.921L456.571 314.314L422.491 261.716L407.074 253.993L378.879 260.816Z" fill="#F7B369"/>
<path d="M378.879 260.816C378.879 260.816 361.387 324.833 357.692 347.197C353.998 369.561 353.234 390.935 353.234 390.935L330.367 387.557L339.099 335.067L370.308 267.904L378.879 260.816Z" fill="#6876AA"/>
<path d="M378.879 260.816C378.879 260.816 356.486 256.432 330.616 279.772C304.746 303.112 276.073 359.243 288.043 381.511C300.886 405.4 343.837 406.846 343.837 406.846L346.049 358.298L358.916 287.833L378.879 260.816Z" fill="#6876AA"/>
<path d="M384.198 266.925C381.055 266.925 378.959 266.595 378.73 266.556C378.237 266.475 377.905 266.013 377.987 265.526C378.07 265.04 378.534 264.711 379.029 264.791C379.178 264.815 394.054 267.145 405.278 258.756C405.675 258.458 406.242 258.535 406.545 258.931C406.846 259.324 406.767 259.886 406.369 260.184C398.765 265.867 389.812 266.925 384.198 266.925Z" fill="#465884"/>
<path d="M341.424 361.48C341.202 361.48 340.977 361.407 340.791 361.257C340.647 361.142 326.244 349.615 313.424 343.13C312.929 342.879 312.733 342.281 312.986 341.793C313.239 341.305 313.846 341.114 314.337 341.36C327.349 347.942 341.912 359.599 342.058 359.716C342.489 360.06 342.553 360.687 342.205 361.112C342.006 361.354 341.716 361.48 341.424 361.48Z" fill="#465884"/>
<path d="M408.283 241.341L408.013 264.721C408.013 264.721 403.672 271.394 389.828 272.35C379.515 273.063 376.313 267.793 376.313 267.793L379.044 247.361L404.082 242.21L408.283 241.341Z" fill="#F48462"/>
<path d="M404.082 242.21C404.015 242.848 403.761 243.598 403.369 244.459C397.944 256.078 383.452 258.434 377.495 258.894L379.044 247.363L404.082 242.21Z" fill="black"/>
<path d="M374.386 194.009C374.386 194.009 361.641 223.183 366.344 239.525C371.048 255.867 386.11 253.231 395.117 250.032C404.123 246.833 408.286 241.347 408.286 241.347C408.286 241.347 416.721 244.137 422.324 236.366C427.927 228.596 424.421 219.714 419.602 217.694C414.783 215.675 409.077 219.134 409.077 219.134L413.525 210.652C413.525 210.652 394.484 167.718 374.386 194.009Z" fill="#F48462"/>
<path d="M410.133 231.652C409.846 231.652 409.561 231.531 409.362 231.297C409.005 230.877 409.061 230.25 409.488 229.898L418.903 222.102C419.328 221.75 419.964 221.806 420.318 222.226C420.675 222.646 420.618 223.273 420.193 223.625L410.777 231.421C410.59 231.575 410.361 231.652 410.133 231.652Z" fill="black"/>
<path d="M419.654 231.524C419.508 231.524 419.361 231.493 419.223 231.427L413.251 228.616C412.75 228.38 412.537 227.786 412.776 227.29C413.015 226.794 413.615 226.584 414.116 226.82L420.088 229.632C420.589 229.867 420.802 230.461 420.563 230.957C420.39 231.315 420.03 231.524 419.654 231.524Z" fill="black"/>
<path d="M409.078 219.134C409.078 219.134 398.729 218.162 392.158 209.783C385.587 201.404 382.482 192.818 382.482 192.818C382.482 192.818 378.113 193.561 375.333 197.018C373.288 199.561 370.889 203.251 370.889 203.251C370.889 203.251 370.591 191.46 376.561 185.642C382.532 179.824 387.691 181.806 387.691 181.806C387.691 181.806 400.823 174.333 414.276 186.005C427.728 197.676 421.552 218.965 421.552 218.965C421.552 218.965 414.754 216.328 409.078 219.134Z" fill="black"/>
<path d="M374.882 229.828C374.435 229.828 374.029 229.532 373.911 229.086C372.125 222.341 377.365 218.162 377.59 217.987C378.025 217.647 378.656 217.72 379.002 218.152C379.345 218.582 379.27 219.205 378.836 219.545C378.653 219.691 374.409 223.118 375.856 228.581C375.997 229.113 375.676 229.656 375.139 229.795C375.052 229.818 374.967 229.828 374.882 229.828Z" fill="black"/>
<path d="M370.278 219.417C370.215 219.417 370.151 219.412 370.086 219.399C369.542 219.295 369.184 218.775 369.29 218.234L370.683 211.074L369.512 209.723C369.151 209.307 369.199 208.678 369.621 208.321C370.043 207.963 370.676 208.013 371.039 208.429L372.526 210.145C372.725 210.376 372.807 210.682 372.749 210.98L371.265 218.611C371.17 219.085 370.749 219.417 370.278 219.417Z" fill="black"/>
<path d="M387.21 221.633C387.154 221.633 387.095 221.629 387.037 221.619C386.491 221.526 386.123 221.012 386.217 220.47L387.502 213.106L386.038 211.124C385.711 210.681 385.809 210.059 386.257 209.734C386.707 209.412 387.334 209.509 387.662 209.951L389.377 212.272C389.537 212.489 389.602 212.762 389.556 213.028L388.198 220.808C388.115 221.291 387.69 221.633 387.21 221.633Z" fill="black"/>
<path d="M370.477 205.475C369.997 205.475 369.571 205.132 369.488 204.647C369.395 204.106 369.764 203.593 370.31 203.5L375.385 202.645C375.931 202.555 376.453 202.916 376.545 203.457C376.639 203.999 376.27 204.512 375.724 204.604L370.648 205.459C370.591 205.469 370.533 205.475 370.477 205.475Z" fill="black"/>
<path d="M392.75 207.508C392.663 207.508 392.575 207.497 392.487 207.474L382.953 204.921C382.418 204.777 382.101 204.231 382.246 203.701C382.391 203.171 382.942 202.859 383.479 203.001L393.013 205.555C393.549 205.699 393.864 206.245 393.72 206.775C393.598 207.216 393.193 207.508 392.75 207.508Z" fill="black"/>
<path d="M379.375 240.63C375.689 240.63 373.712 236.182 373.628 235.987C373.504 235.705 373.522 235.381 373.673 235.112C373.824 234.844 374.094 234.659 374.401 234.612L384.602 233.082C384.947 233.025 385.299 233.16 385.525 233.428C385.75 233.696 385.818 234.059 385.703 234.388C385.491 234.995 383.518 240.328 379.73 240.616C379.609 240.624 379.49 240.63 379.375 240.63ZM376.131 236.362C376.825 237.402 378.018 238.752 379.574 238.633C381.06 238.519 382.32 236.788 383.097 235.316L376.131 236.362Z" fill="black"/>
<path d="M411.104 190.53C411.104 190.53 410.106 161.101 432.912 168.039C455.719 174.976 440.423 200.391 426.947 206.008C413.47 211.625 407.856 199.519 407.856 199.519L411.104 190.53Z" fill="black"/>
<path d="M389.534 273.448C380.653 273.448 375.672 268.565 375.594 268.489C375.208 268.097 375.215 267.47 375.61 267.086C376.003 266.704 376.639 266.707 377.031 267.098C377.482 267.548 388.28 277.992 407.291 265.194C407.75 264.886 408.375 265.003 408.688 265.456C409.001 265.909 408.881 266.528 408.423 266.837C400.976 271.849 394.617 273.448 389.534 273.448Z" fill="#465884"/>
<path d="M210.235 322.915L243.172 408.424L199.068 406.635L185.871 340.366L210.235 322.915Z" fill="#F48462"/>
<path d="M28.5173 350.284C28.5173 350.284 37.7382 291.132 73.3784 268.062C109.018 244.993 169.795 259.537 187.443 270.388C210.573 284.611 227.573 342.019 227.573 342.019L199.935 367.801L204.424 407.12L79.0804 407.319L81.3716 349.981L28.5173 350.284Z" fill="#F7B369"/>
<path d="M897.117 384.189L896.457 406.639C896.457 406.639 933.393 410.265 971.025 408.847C998.157 407.824 1018.94 403.943 1018.94 403.943V330.453H918.869L897.117 384.189Z" fill="#A37B90"/>
<path d="M1452 396.065H0V428.341H1452V396.065Z" fill="#EBE8EE"/>
<path d="M381.454 322.45C381.454 322.45 373.641 281.99 369.615 277.61C365.588 273.23 339.089 261.659 335.713 264.843C332.338 268.027 335.771 272.027 335.771 272.027C335.771 272.027 330.733 269.181 328.837 272.161C326.94 275.14 330.616 279.773 330.616 279.773C330.616 279.773 326.599 277.272 327.13 282.817C327.664 288.362 338.663 298.509 338.663 298.509C338.663 298.509 339.297 309.842 346.342 322.023C353.387 334.204 374.832 334.75 374.832 334.75L381.454 322.45Z" fill="#F48462"/>
<path d="M356.842 283.217C356.685 283.217 356.527 283.182 356.378 283.105L335.374 272.272C334.883 272.018 334.691 271.417 334.948 270.931C335.204 270.445 335.814 270.256 336.304 270.509L357.308 281.342C357.799 281.596 357.991 282.197 357.734 282.683C357.556 283.022 357.205 283.217 356.842 283.217Z" fill="black"/>
<path d="M351.165 293.489C350.983 293.489 350.799 293.44 350.632 293.338L330.082 280.615C329.61 280.323 329.469 279.71 329.763 279.246C330.058 278.781 330.678 278.643 331.149 278.931L351.699 291.655C352.171 291.945 352.312 292.56 352.018 293.024C351.828 293.325 351.499 293.489 351.165 293.489Z" fill="black"/>
<path d="M160.742 195.121C160.742 195.121 169.305 172.2 156.75 165.028C150.27 161.326 137.335 172.634 137.335 172.634C137.335 172.634 115.706 175.95 110.184 186.287C104.661 196.624 110.37 211.487 110.37 211.487C110.37 211.487 118.257 208.257 123.195 209.365C128.133 210.474 160.742 195.121 160.742 195.121Z" fill="black"/>
<path d="M344.859 335.066C344.859 335.066 387.705 414.342 444.713 410.065C501.72 405.789 478.984 312.534 461.081 287.367C443.178 262.201 408.283 254.337 408.283 254.337L407.074 319.035L388.03 302.988L344.859 335.066Z" fill="#6876AA"/>
<path d="M443.07 352.783C442.826 352.783 442.583 352.696 442.39 352.521L406.394 319.767C405.984 319.394 405.959 318.767 406.335 318.362C406.711 317.959 407.349 317.935 407.754 318.304L443.75 351.057C444.159 351.431 444.185 352.058 443.809 352.462C443.612 352.676 443.341 352.783 443.07 352.783Z" fill="#465884"/>
<path d="M445.553 338.861C436.678 338.861 424.354 335.315 423.666 335.114C423.229 334.988 422.934 334.586 422.945 334.135C422.957 333.687 423.272 333.299 423.715 333.195C426.281 332.585 448.913 327.362 453.726 331.578C454.529 332.28 454.888 333.213 454.765 334.275C454.614 335.575 453.944 336.622 452.774 337.39C451.142 338.459 448.541 338.861 445.553 338.861ZM428.161 334.252C435.63 336.082 447.745 338.304 451.663 335.733C452.334 335.293 452.686 334.758 452.768 334.047C452.817 333.631 452.705 333.337 452.395 333.067C449.759 330.76 437.446 332.348 428.161 334.252Z" fill="#465884"/>
<path d="M122.447 236.024L123.192 257.811C123.192 257.811 127.849 264.023 142.3 264.89C153.064 265.537 156.762 263.347 156.762 263.347L154.887 252.33L153.042 241.587L126.842 236.828L122.447 236.024Z" fill="#F48462"/>
<path d="M126.838 236.885C126.916 237.549 127.188 238.33 127.607 239.222C133.399 251.282 148.542 253.576 154.76 253.989L153.012 241.978L126.838 236.885Z" fill="black"/>
<path d="M157.263 186.277C157.263 186.277 170.89 216.566 166.171 233.664C161.452 250.763 145.709 248.181 136.279 244.945C126.849 241.709 122.444 236.031 122.444 236.031C122.444 236.031 113.676 239.037 107.743 230.994C101.811 222.951 105.367 213.647 110.37 211.487C115.373 209.327 121.365 212.871 121.365 212.871L116.628 204.073C116.628 204.073 136 159.077 157.263 186.277Z" fill="#F48462"/>
<path d="M120.058 227.144C119.791 227.144 119.525 227.04 119.327 226.831L110.983 218.088C110.602 217.689 110.621 217.06 111.024 216.683C111.428 216.308 112.063 216.324 112.445 216.724L120.79 225.468C121.17 225.867 121.153 226.495 120.748 226.873C120.554 227.054 120.306 227.144 120.058 227.144Z" fill="black"/>
<path d="M111.225 224.801C110.736 224.801 110.308 224.447 110.233 223.956C110.15 223.413 110.527 222.907 111.076 222.824L116.847 221.959C117.401 221.875 117.908 222.25 117.992 222.793C118.075 223.336 117.698 223.842 117.149 223.925L111.377 224.788C111.324 224.797 111.274 224.801 111.225 224.801Z" fill="black"/>
<path d="M142.467 215.751C141.968 215.751 141.536 215.384 141.471 214.883L140.461 207.051C140.39 206.507 140.781 206.009 141.331 205.94C141.893 205.868 142.385 206.256 142.455 206.8L143.465 214.632C143.536 215.176 143.146 215.674 142.595 215.744C142.552 215.748 142.509 215.751 142.467 215.751Z" fill="black"/>
<path d="M159.482 214.273C158.992 214.273 158.563 213.918 158.489 213.424L157.345 205.736C157.264 205.193 157.645 204.688 158.192 204.607C158.749 204.527 159.253 204.904 159.334 205.445L160.478 213.134C160.559 213.677 160.178 214.182 159.631 214.263C159.58 214.27 159.53 214.273 159.482 214.273Z" fill="black"/>
<path d="M136.854 202.729C136.699 202.729 136.543 202.693 136.396 202.618C135.902 202.367 135.707 201.767 135.962 201.28C138.053 197.258 143.202 198.307 143.421 198.356C143.963 198.471 144.308 199.001 144.19 199.537C144.074 200.071 143.546 200.411 142.999 200.299C142.843 200.268 139.132 199.531 137.749 202.189C137.57 202.532 137.219 202.729 136.854 202.729Z" fill="black"/>
<path d="M161.874 201.046C161.61 201.046 161.347 200.945 161.149 200.741C161.046 200.636 158.571 198.16 155.452 199.275C154.927 199.46 154.354 199.194 154.165 198.678C153.976 198.162 154.246 197.592 154.769 197.405C159.136 195.843 162.462 199.222 162.602 199.366C162.985 199.764 162.971 200.392 162.569 200.771C162.374 200.955 162.125 201.046 161.874 201.046Z" fill="black"/>
<path d="M151.748 231.346C151.003 231.346 146.251 231.168 142.445 226.799C142.084 226.383 142.13 225.756 142.55 225.398C142.971 225.039 143.605 225.087 143.967 225.502C147.372 229.411 151.59 229.351 151.781 229.358C152.339 229.357 152.796 229.777 152.81 230.326C152.825 230.873 152.391 231.329 151.839 231.346C151.828 231.344 151.796 231.346 151.748 231.346Z" fill="black"/>
<path d="M159.144 190.836C159.144 190.836 159.037 187.687 152.352 187.553C145.667 187.419 141.7 192.022 141.7 192.022C141.7 192.022 142.893 201.367 134.184 207.819C126.397 213.589 119.127 213.03 119.127 213.03L110.372 211.486L109.225 200.268L124.13 178.446L156.044 168.394L159.144 190.836Z" fill="black"/>
<path d="M162.158 219.313C157.312 219.313 153.1 215.141 152.587 209.649C152.047 203.866 155.806 198.779 160.969 198.306C166.131 197.831 170.772 202.153 171.314 207.935C171.855 213.717 168.094 218.804 162.93 219.278C162.671 219.3 162.413 219.313 162.158 219.313ZM161.743 200.258C161.549 200.258 161.353 200.267 161.155 200.285C157.096 200.657 154.149 204.774 154.587 209.465C155.025 214.155 158.677 217.659 162.745 217.298C166.804 216.926 169.751 212.81 169.313 208.118C168.895 203.657 165.562 200.258 161.743 200.258Z" fill="#68B6D8"/>
<path d="M138.223 223.092C135.746 223.092 133.367 222.246 131.437 220.66C129.25 218.863 127.9 216.329 127.639 213.529C127.377 210.729 128.234 207.994 130.051 205.831C131.868 203.668 134.429 202.333 137.262 202.075C143.105 201.525 148.306 205.81 148.846 211.591C149.388 217.374 145.069 222.512 139.223 223.047C138.889 223.077 138.555 223.092 138.223 223.092ZM138.249 204.017C137.984 204.017 137.716 204.029 137.448 204.053C135.149 204.264 133.072 205.345 131.597 207.101C130.123 208.855 129.427 211.074 129.641 213.345C129.852 215.618 130.948 217.673 132.723 219.131C134.498 220.589 136.75 221.274 139.037 221.066C143.781 220.631 147.284 216.463 146.845 211.774C146.432 207.35 142.657 204.017 138.249 204.017Z" fill="#68B6D8"/>
<path d="M147.348 210.433C146.966 210.433 146.601 210.217 146.432 209.851C146.202 209.352 146.424 208.762 146.928 208.534C147.336 208.351 150.982 206.767 153.348 208.066C153.832 208.332 154.008 208.938 153.738 209.418C153.467 209.898 152.856 210.071 152.371 209.804C151.12 209.119 148.561 209.985 147.764 210.343C147.629 210.404 147.487 210.433 147.348 210.433Z" fill="#68B6D8"/>
<path d="M128.639 214.433C128.455 214.433 128.267 214.381 128.1 214.277C122.145 210.531 109.975 212.449 109.853 212.468C109.301 212.557 108.788 212.188 108.699 211.647C108.608 211.105 108.98 210.594 109.527 210.505C110.057 210.421 122.575 208.448 129.179 212.6C129.648 212.894 129.786 213.509 129.488 213.972C129.298 214.27 128.972 214.433 128.639 214.433Z" fill="#68B6D8"/>
<path d="M154.073 222.036C153.975 222.036 153.874 222.022 153.776 221.992C153.245 221.83 152.949 221.274 153.113 220.748C154.812 215.316 150.583 211.63 150.539 211.593C150.12 211.235 150.072 210.606 150.434 210.19C150.796 209.777 151.43 209.729 151.852 210.086C152.068 210.27 157.117 214.673 155.034 221.334C154.9 221.763 154.502 222.036 154.073 222.036Z" fill="black"/>
<path d="M124.583 381.143L169.879 408.483C171.526 409.478 174.088 409.059 175.603 407.55L236.804 346.541C238.319 345.032 238.211 343.003 236.564 342.009L191.268 314.669C189.621 313.674 187.058 314.093 185.544 315.602L124.342 376.612C122.829 378.119 122.937 380.15 124.583 381.143Z" fill="#4D9DC1"/>
<path d="M129.881 384.323L175.177 411.663C176.825 412.657 179.387 412.238 180.901 410.729L242.103 349.721C243.618 348.212 243.509 346.182 241.862 345.188L196.566 317.848C194.919 316.853 192.357 317.272 190.843 318.781L129.641 379.79C128.126 381.299 128.234 383.329 129.881 384.323Z" fill="#68B6D8"/>
<path d="M116.997 333.51C119.551 330.456 130.903 325.603 134.902 325.846C141.428 326.244 151.284 326.999 153.561 328.042C157.035 329.634 164.928 335.915 164.928 335.915L161.675 340.468C161.675 340.468 191.688 355.964 189.26 362.074C187.606 366.235 174.291 360.276 174.291 360.276C174.291 360.276 187.607 367.573 185.295 372.136C182.982 376.699 165.82 369.517 165.82 369.517C165.82 369.517 179.055 377.911 172.035 379.976C165.014 382.041 117.19 369.042 114.683 355.117C113.035 345.957 112.222 339.221 116.997 333.51Z" fill="#F48462"/>
<path d="M33.3576 350.624C33.3576 350.624 23.1395 389.024 58.7133 394.235C94.2872 399.446 126.31 364.317 126.31 364.317L130.743 328.913L64.2151 350.08L33.3576 350.624Z" fill="#F48462"/>
<path d="M174.293 361.267C174.14 361.267 173.983 361.233 173.837 361.159L154.068 351.203C153.574 350.953 153.377 350.355 153.629 349.866C153.881 349.376 154.488 349.183 154.98 349.431L174.749 359.388C175.244 359.637 175.441 360.236 175.189 360.725C175.012 361.071 174.657 361.267 174.293 361.267Z" fill="black"/>
<path d="M165.82 370.509C165.667 370.509 165.513 370.476 165.367 370.402L146.894 361.162C146.398 360.914 146.2 360.317 146.45 359.827C146.701 359.337 147.306 359.137 147.801 359.388L166.275 368.628C166.771 368.876 166.968 369.473 166.719 369.961C166.54 370.309 166.187 370.509 165.82 370.509Z" fill="black"/>
<path d="M143.428 266.404C136.678 266.404 128.675 264.748 122.476 258.508C122.087 258.116 122.093 257.488 122.489 257.103C122.885 256.717 123.521 256.724 123.91 257.116C136.165 269.45 156.22 262.484 156.421 262.411C156.943 262.224 157.52 262.492 157.708 263.008C157.896 263.524 157.626 264.094 157.104 264.281C156.991 264.32 150.996 266.404 143.428 266.404Z" fill="#5C69A5"/>
<path d="M947.137 256.509C947.137 256.509 915.951 256.965 892.61 282.61C869.269 308.257 863.542 364.097 863.542 364.097L923.864 377.076L1049.61 340.269C1049.61 340.269 1027.62 291.696 1007.48 271.524C987.354 251.351 947.137 256.509 947.137 256.509Z" fill="#A37B90"/>
<path d="M941.663 238.544L942.409 260.33C942.409 260.33 947.067 266.542 961.517 267.41C972.281 268.057 975.979 265.867 975.979 265.867L974.104 254.85L972.26 244.107L946.059 239.349L941.663 238.544Z" fill="#F48462"/>
<path d="M946.054 239.403C946.131 240.067 946.405 240.848 946.823 241.74C952.614 253.8 967.758 256.094 973.976 256.507L972.228 244.496L946.054 239.403Z" fill="black"/>
<path d="M976.479 188.795C976.479 188.795 990.106 219.084 985.387 236.182C980.666 253.281 964.925 250.699 955.495 247.463C946.065 244.226 941.66 238.549 941.66 238.549C941.66 238.549 932.892 241.555 926.959 233.512C921.026 225.469 924.583 216.165 929.586 214.005C934.589 211.845 940.581 215.389 940.581 215.389L935.844 206.591C935.844 206.591 955.215 161.596 976.479 188.795Z" fill="#F48462"/>
<path d="M975.541 224.556C975.443 224.556 975.342 224.542 975.244 224.512C974.714 224.349 974.417 223.793 974.581 223.268C976.268 217.87 972.179 214.262 972.005 214.111C971.587 213.75 971.542 213.123 971.905 212.71C972.27 212.295 972.902 212.251 973.319 212.607C973.535 212.791 978.583 217.194 976.5 223.855C976.368 224.282 975.97 224.556 975.541 224.556Z" fill="black"/>
<path d="M939.274 229.663C939.007 229.663 938.741 229.559 938.543 229.351L930.198 220.607C929.817 220.208 929.835 219.58 930.239 219.202C930.642 218.824 931.279 218.843 931.658 219.243L940.003 227.987C940.385 228.386 940.366 229.015 939.963 229.392C939.77 229.573 939.522 229.663 939.274 229.663Z" fill="black"/>
<path d="M930.439 227.32C929.951 227.32 929.521 226.967 929.448 226.475C929.364 225.932 929.742 225.426 930.291 225.344L936.063 224.479C936.602 224.4 937.125 224.77 937.207 225.312C937.291 225.855 936.913 226.361 936.364 226.444L930.592 227.309C930.541 227.316 930.489 227.32 930.439 227.32Z" fill="black"/>
<path d="M961.683 218.27C961.184 218.27 960.752 217.904 960.688 217.402L959.678 209.57C959.608 209.026 959.997 208.529 960.549 208.459C961.09 208.389 961.602 208.775 961.671 209.32L962.681 217.151C962.752 217.696 962.363 218.195 961.811 218.263C961.769 218.267 961.725 218.27 961.683 218.27Z" fill="black"/>
<path d="M978.698 216.792C978.208 216.792 977.779 216.438 977.705 215.943L976.561 208.254C976.48 207.711 976.861 207.206 977.41 207.125C977.949 207.04 978.469 207.42 978.551 207.963L979.695 215.652C979.776 216.195 979.395 216.7 978.846 216.781C978.796 216.788 978.747 216.792 978.698 216.792Z" fill="black"/>
<path d="M956.069 205.248C955.914 205.248 955.757 205.213 955.61 205.137C955.117 204.886 954.922 204.287 955.177 203.799C957.266 199.779 962.412 200.828 962.635 200.877C963.178 200.993 963.521 201.522 963.405 202.058C963.288 202.594 962.758 202.93 962.212 202.82C962.036 202.783 958.344 202.055 956.963 204.708C956.788 205.05 956.433 205.248 956.069 205.248Z" fill="black"/>
<path d="M981.091 203.566C980.826 203.566 980.564 203.464 980.367 203.261C980.264 203.154 977.787 200.681 974.669 201.793C974.15 201.981 973.569 201.713 973.382 201.196C973.193 200.68 973.464 200.11 973.986 199.923C978.358 198.359 981.681 201.74 981.821 201.884C982.204 202.282 982.188 202.91 981.787 203.289C981.59 203.474 981.341 203.566 981.091 203.566Z" fill="black"/>
<path d="M967.346 267.769C953.655 267.769 942.47 261.512 941.908 261.191C941.427 260.918 941.261 260.31 941.537 259.835C941.811 259.36 942.424 259.192 942.909 259.468C943.069 259.559 959.152 268.537 975.76 264.893C976.29 264.774 976.838 265.111 976.959 265.649C977.08 266.184 976.738 266.716 976.196 266.834C973.185 267.495 970.21 267.769 967.346 267.769Z" fill="white"/>
<path d="M970.963 233.864C970.218 233.864 965.467 233.687 961.661 229.317C961.298 228.901 961.346 228.274 961.766 227.916C962.186 227.557 962.821 227.604 963.183 228.02C966.586 231.929 970.807 231.882 970.997 231.876C971.493 231.828 972.012 232.296 972.028 232.844C972.042 233.391 971.608 233.847 971.055 233.864C971.043 233.864 971.012 233.864 970.963 233.864Z" fill="black"/>
<path d="M931.108 214.071C936.069 213.293 940.581 215.389 940.774 216.483C941.448 220.278 945.83 221.568 946.054 217.275C946.448 209.696 940.579 208.108 940.579 208.108C940.579 208.108 949.594 207.182 957.531 199.044C965.468 190.904 967.516 187.486 967.516 187.486L978.934 194.856C978.934 194.856 991.508 169.817 959.758 171.527C928.007 173.237 927.583 200.757 927.583 200.757C927.583 200.757 918.784 203.087 919.361 208.11C919.937 213.133 925.264 218.461 925.264 218.461C925.264 218.461 926.19 214.843 931.108 214.071Z" fill="black"/>
<path d="M1051.23 329.65C1051.23 329.65 1056.25 323.26 1067.35 318.684C1084.67 311.549 1097.16 310.559 1097.16 310.559L1096.86 320.142L1051.23 329.65Z" fill="#F7B369"/>
<path d="M991.464 315.837L991.011 330.349L1065.11 334.249C1065.11 334.249 1062.58 326.087 1041.78 320.931C1023.28 316.349 991.464 315.837 991.464 315.837Z" fill="#F7B369"/>
<path d="M1101.14 316.327L1098.55 399.265L1054.76 408.06L988.126 406.936L989.131 321.748L1055.54 325.188L1101.14 316.327Z" fill="#68B6D8"/>
<path d="M1053.48 324.92L1050.86 408.847L1057.53 408.294L1060.15 324.235L1053.48 324.92Z" fill="#5AA5BF"/>
<path d="M1106.44 369.112C1106.44 369.112 1121.4 373.183 1115.62 379.388C1109.85 385.592 1081.78 384.664 1080.13 376.082C1078.47 367.499 1106.44 369.112 1106.44 369.112Z" fill="#F48462"/>
<path d="M1106.75 356.425C1106.75 356.425 1121.7 360.497 1115.93 366.701C1110.16 372.905 1082.09 371.978 1080.44 363.395C1078.78 354.812 1106.75 356.425 1106.75 356.425Z" fill="#F48462"/>
<path d="M1099.42 344.693C1102.91 344.109 1106.53 344.277 1109.83 345.545C1112.73 346.66 1115.13 348.558 1113.08 351.693C1108.99 357.964 1084.38 361.34 1081.63 354.102C1079.59 348.75 1092.54 345.843 1099.42 344.693Z" fill="#F48462"/>
<path d="M1087.1 358.648C1086.58 358.648 1086.14 358.244 1086.1 357.718C1086.07 357.169 1086.49 356.697 1087.04 356.663L1106.69 355.435C1107.22 355.388 1107.72 355.817 1107.75 356.364C1107.79 356.913 1107.37 357.384 1106.81 357.419L1087.17 358.647C1087.15 358.648 1087.13 358.648 1087.1 358.648Z" fill="black"/>
<path d="M1110.3 371.478C1110.29 371.478 1088.71 371.173 1088.71 371.173C1088.15 371.165 1087.71 370.714 1087.72 370.165C1087.72 369.617 1088.17 369.159 1088.74 369.185L1110.32 369.49C1110.87 369.497 1111.31 369.948 1111.31 370.497C1111.3 371.043 1110.85 371.478 1110.3 371.478Z" fill="black"/>
<path d="M967.516 391.237C967.516 391.237 936.213 400.925 891.206 392.31C844.825 383.43 859.219 320.071 880.833 293.996C902.445 267.921 925.577 260.55 925.577 260.55L921.183 340.27L967.517 351.28L967.516 391.237Z" fill="#A37B90"/>
<path d="M955.875 388.703C955.875 388.703 968.151 395.034 984.727 389.196C1004.96 382.072 973.718 348.393 973.718 348.393L955.414 360.861L955.875 388.703Z" fill="#F48462"/>
<path d="M981.367 371.486C981.367 371.486 967.664 378.671 974.662 383.489C981.661 388.305 1008.85 381.373 1008.58 372.639C1008.32 363.904 981.367 371.486 981.367 371.486Z" fill="#F48462"/>
<path d="M978.28 359.168C978.28 359.168 964.578 366.353 971.575 371.171C978.573 375.989 1005.77 369.055 1005.5 360.321C1005.23 351.586 978.28 359.168 978.28 359.168Z" fill="#F48462"/>
<path d="M982.858 346.142C979.319 346.322 975.829 347.264 972.883 349.209C970.294 350.921 968.375 353.286 971.058 355.908C976.425 361.152 1001.19 359.16 1002.29 351.505C1003.11 345.843 989.827 345.788 982.858 346.142Z" fill="#F48462"/>
<path d="M978.279 360.162C977.793 360.162 977.365 359.812 977.287 359.322C977.201 358.779 977.577 358.272 978.124 358.185L997.571 355.166C998.12 355.091 998.633 355.451 998.721 355.993C998.807 356.536 998.431 357.044 997.883 357.131L978.436 360.15C978.382 360.157 978.33 360.162 978.279 360.162Z" fill="black"/>
<path d="M981.282 373.502C980.833 373.502 980.426 373.206 980.309 372.759C980.169 372.227 980.492 371.684 981.029 371.547L997.906 367.23C998.444 367.089 998.991 367.411 999.131 367.942C999.271 368.474 998.948 369.017 998.411 369.153L981.534 373.471C981.449 373.494 981.364 373.502 981.282 373.502Z" fill="black"/>
<path d="M955.413 361.856C954.824 361.836 954.388 361.376 954.408 360.827L954.844 348.715C949.757 347.234 919.764 338.666 899.939 336.562C899.387 336.504 898.988 336.014 899.047 335.468C899.106 334.921 899.609 334.517 900.154 334.586C921.954 336.898 955.826 346.926 956.167 347.027C956.605 347.159 956.897 347.563 956.881 348.014L956.42 360.895C956.398 361.434 955.952 361.856 955.413 361.856Z" fill="white"/>
<path d="M925.576 341.263C925.429 341.263 925.282 341.232 925.142 341.166C923.319 340.306 907.297 332.574 905.748 326.221C905.445 324.984 905.684 323.814 906.438 322.837C907.189 321.862 908.209 321.386 909.392 321.45C915.464 321.796 925.335 337.924 926.44 339.763C926.666 340.139 926.617 340.618 926.318 340.941C926.123 341.151 925.852 341.263 925.576 341.263ZM909.174 323.432C908.713 323.432 908.359 323.623 908.036 324.042C907.645 324.547 907.539 325.092 907.702 325.755C908.622 329.528 917.165 334.767 922.81 337.762C918.633 331.394 912.512 323.62 909.275 323.435C909.242 323.434 909.209 323.432 909.174 323.432Z" fill="white"/>
<path d="M1257.26 271.9L1243.42 341.735C1243.42 341.735 1291.92 367.439 1311.55 351.037C1331.18 334.634 1308.7 282.062 1308.7 282.062L1307.35 281.261C1301.62 281.587 1292.88 280.835 1285.37 279.715C1280.56 278.996 1275.82 277.851 1271.18 276.366L1257.26 271.9Z" fill="#6876AA"/>
<path d="M1337.52 260.128L1338.29 283.498C1338.29 283.498 1334.25 290.354 1320.46 291.911C1310.19 293.071 1306.75 287.945 1306.75 287.945L1308.57 267.415L1333.36 261.18L1337.52 260.128Z" fill="#F48462"/>
<path d="M1333.36 261.18C1333.32 261.82 1333.1 262.58 1332.75 263.457C1327.85 275.301 1313.47 278.284 1307.54 279.004L1308.57 267.415L1333.36 261.18Z" fill="black"/>
<path d="M1301.55 214.317C1301.55 214.317 1290.11 244.018 1295.54 260.139C1300.96 276.262 1315.9 272.972 1324.75 269.383C1333.6 265.795 1337.52 260.132 1337.52 260.132C1337.52 260.132 1346.07 262.553 1351.32 254.546C1356.58 246.541 1352.68 237.818 1347.77 236.011C1342.87 234.204 1337.32 237.907 1337.32 237.907L1341.39 229.24C1341.39 229.241 1320.46 187.177 1301.55 214.317Z" fill="#F48462"/>
<path d="M1313.59 258.97C1311.3 258.97 1309.09 257.574 1308.97 257.498C1308.66 257.297 1308.48 256.94 1308.52 256.573C1308.55 256.205 1308.79 255.886 1309.13 255.745L1316.96 252.56C1317.28 252.429 1317.65 252.473 1317.94 252.681C1318.22 252.889 1318.37 253.231 1318.34 253.577C1318.08 256.125 1317.14 257.8 1315.55 258.553C1314.92 258.853 1314.25 258.97 1313.59 258.97ZM1312.02 256.719C1312.92 256.999 1313.92 257.127 1314.69 256.761C1315.26 256.487 1315.69 255.933 1315.98 255.106L1312.02 256.719Z" fill="black"/>
<path d="M1338.89 250.368C1338.62 250.368 1338.35 250.26 1338.15 250.045C1337.77 249.64 1337.8 249.012 1338.21 248.641L1347.27 240.443C1347.68 240.073 1348.31 240.1 1348.69 240.506C1349.06 240.91 1349.04 241.539 1348.63 241.909L1339.57 250.107C1339.38 250.283 1339.13 250.368 1338.89 250.368Z" fill="black"/>
<path d="M1348.4 249.827C1348.27 249.827 1348.13 249.801 1348.01 249.747L1341.92 247.198C1341.4 246.984 1341.16 246.401 1341.38 245.895C1341.6 245.389 1342.19 245.153 1342.7 245.368L1348.79 247.917C1349.3 248.131 1349.54 248.714 1349.32 249.22C1349.16 249.599 1348.79 249.827 1348.4 249.827Z" fill="black"/>
<path d="M1337.32 237.908C1337.32 237.908 1326.94 237.388 1320 229.302C1313.07 221.217 1309.58 212.775 1309.58 212.775C1309.58 212.775 1305.25 213.707 1302.63 217.283C1300.7 219.912 1298.47 223.702 1298.47 223.702C1298.47 223.702 1297.64 211.936 1303.35 205.864C1309.06 199.792 1314.3 201.548 1314.3 201.548C1314.3 201.548 1327.09 193.512 1341.04 204.586C1355 215.661 1349.78 237.197 1349.78 237.197C1349.78 237.197 1342.87 234.857 1337.32 237.908Z" fill="black"/>
<path d="M1303.59 250.08C1303.16 250.08 1302.77 249.807 1302.63 249.379C1300.55 242.719 1305.6 238.316 1305.82 238.132C1306.24 237.774 1306.87 237.82 1307.23 238.236C1307.59 238.65 1307.55 239.277 1307.13 239.635C1306.96 239.786 1302.86 243.394 1304.55 248.792C1304.72 249.317 1304.42 249.872 1303.89 250.036C1303.79 250.066 1303.69 250.08 1303.59 250.08Z" fill="black"/>
<path d="M1298.53 239.879C1298.48 239.879 1298.43 239.876 1298.38 239.867C1297.83 239.788 1297.45 239.283 1297.53 238.739L1298.61 231.524L1297.38 230.224C1296.99 229.824 1297.02 229.194 1297.42 228.819C1297.83 228.446 1298.46 228.465 1298.84 228.865L1300.4 230.514C1300.61 230.735 1300.71 231.038 1300.67 231.339L1299.52 239.028C1299.45 239.524 1299.02 239.879 1298.53 239.879Z" fill="black"/>
<path d="M1315.54 241.357C1315.5 241.357 1315.46 241.354 1315.42 241.348C1314.86 241.278 1314.48 240.781 1314.55 240.236L1315.5 232.822L1313.95 230.907C1313.61 230.478 1313.68 229.852 1314.11 229.51C1314.54 229.168 1315.17 229.237 1315.52 229.664L1317.34 231.909C1317.51 232.12 1317.59 232.389 1317.55 232.655L1316.54 240.487C1316.47 240.99 1316.04 241.357 1315.54 241.357Z" fill="black"/>
<path d="M1298.11 225.942C1297.65 225.942 1297.23 225.623 1297.13 225.157C1297.01 224.621 1297.36 224.091 1297.9 223.976L1302.93 222.903C1303.47 222.787 1304.01 223.128 1304.12 223.665C1304.24 224.201 1303.9 224.731 1303.35 224.846L1298.32 225.92C1298.25 225.934 1298.18 225.942 1298.11 225.942Z" fill="black"/>
<path d="M1320.45 227.005C1320.38 227.005 1320.3 226.997 1320.23 226.981L1310.59 224.845C1310.05 224.724 1309.71 224.192 1309.83 223.658C1309.96 223.122 1310.5 222.787 1311.03 222.906L1320.67 225.042C1321.21 225.163 1321.55 225.694 1321.43 226.23C1321.32 226.69 1320.91 227.005 1320.45 227.005Z" fill="black"/>
<path d="M1322.52 408.674C1322.52 408.674 1392.23 413.659 1410.61 399.829C1443.47 375.096 1403.05 328.532 1403.05 328.532L1377.9 355.684L1326.52 378.858L1322.52 408.674Z" fill="#F48462"/>
<path d="M1361.04 283.836C1361.04 283.836 1383 289.05 1398.18 308.816C1409.7 323.82 1418.85 339.654 1418.85 339.654L1366.1 360.304L1353.83 349.591L1361.04 283.836Z" fill="#6876AA"/>
<path d="M1331.43 302.404C1326.57 302.404 1320.26 296.025 1318.2 293.782C1315.21 295.851 1306.82 301.373 1303.6 300.36C1302.92 300.143 1302.42 299.658 1302.19 298.995C1300.8 294.939 1305.4 288.145 1305.93 287.384C1306.1 287.135 1306.38 286.976 1306.68 286.955C1306.99 286.922 1307.28 287.049 1307.49 287.27C1307.71 287.499 1312.59 292.503 1322.62 290.603C1332.84 288.672 1337.45 282.948 1337.49 282.89C1337.76 282.545 1338.23 282.415 1338.65 282.57C1339.06 282.727 1339.32 283.13 1339.29 283.566C1339.08 286.613 1337.72 301.836 1331.92 302.381C1331.76 302.396 1331.6 302.404 1331.43 302.404ZM1320.15 292.942C1322.94 295.859 1328.38 300.704 1331.73 300.401C1334.38 300.152 1336.27 292.638 1337.03 286.157C1334.64 288.201 1330.09 291.212 1323 292.555C1322.01 292.743 1321.06 292.87 1320.15 292.942ZM1306.96 289.46C1305.52 291.784 1303.32 296.081 1304.09 298.358C1304.11 298.415 1304.12 298.438 1304.22 298.466C1305.88 298.994 1311.55 295.833 1315.95 292.9C1311.35 292.417 1308.37 290.565 1306.96 289.46Z" fill="#F7B369"/>
<path d="M1343.42 381.366C1343.42 381.366 1329.39 375.452 1323.97 372.609C1318.55 369.766 1296.53 368.923 1288.98 368.561C1281.43 368.199 1262.24 377.539 1264.28 380.622C1266.32 383.704 1283.91 381.366 1283.91 381.366C1283.91 381.366 1268.78 394.745 1270.7 398.024C1272.62 401.303 1278.21 398.463 1278.21 398.463C1278.21 398.463 1273.46 402.414 1277.49 404.704C1281.52 406.993 1298.72 395.569 1298.72 395.569C1298.72 395.569 1290.13 408.847 1292.88 410.745C1295.62 412.643 1307.89 401.214 1307.89 401.214C1307.89 401.214 1313.43 413.314 1329.82 407.436C1341.16 403.369 1341.74 392.929 1341.74 392.929L1343.42 381.366Z" fill="#F48462"/>
<path d="M1279.52 397.146C1279.24 397.146 1278.95 397.023 1278.75 396.787C1278.4 396.364 1278.46 395.738 1278.88 395.388L1294.78 382.36C1295.21 382.013 1295.85 382.068 1296.2 382.491C1296.55 382.915 1296.49 383.54 1296.07 383.891L1280.17 396.918C1279.98 397.072 1279.75 397.146 1279.52 397.146Z" fill="black"/>
<path d="M1283.91 382.359C1283.59 382.359 1283.28 382.212 1283.08 381.937C1282.76 381.49 1282.87 380.868 1283.33 380.552L1290.35 375.663C1290.8 375.346 1291.43 375.455 1291.75 375.904C1292.07 376.351 1291.96 376.972 1291.51 377.289L1284.48 382.178C1284.31 382.3 1284.11 382.359 1283.91 382.359Z" fill="black"/>
<path d="M1273.87 354.591C1273.26 354.559 1272.84 354.088 1272.87 353.541L1273.6 341.129C1273.63 340.581 1274.12 340.145 1274.66 340.195C1275.21 340.226 1275.64 340.696 1275.6 341.243L1274.88 353.655C1274.85 354.184 1274.4 354.591 1273.87 354.591Z" fill="#F7B369"/>
<path d="M1366.1 361.297C1366.06 361.297 1366.02 361.296 1365.98 361.292C1365.53 361.239 1365.16 360.886 1365.1 360.432C1364.67 357.175 1362.7 340.76 1366.37 337.469C1367.04 336.864 1367.87 336.652 1368.77 336.856C1369.65 337.057 1370.36 337.612 1370.82 338.466C1373.47 343.347 1367.71 358.895 1367.04 360.652C1366.89 361.044 1366.51 361.297 1366.1 361.297ZM1368.12 338.768C1367.97 338.768 1367.85 338.822 1367.72 338.939C1365.9 340.578 1366 348.881 1366.61 355.767C1368.43 350.132 1370.5 342.077 1369.05 339.406C1368.81 338.956 1368.53 338.842 1368.32 338.794C1368.25 338.777 1368.18 338.768 1368.12 338.768Z" fill="#F7B369"/>
<path d="M1155.74 400.948L1281.59 400.945C1284.38 400.945 1286.14 397.968 1284.77 395.56L1241.7 319.875C1241.06 318.738 1239.84 318.034 1238.52 318.034L1112.67 318.037C1109.88 318.037 1108.12 321.014 1109.49 323.422L1152.56 399.107C1153.21 400.244 1154.42 400.948 1155.74 400.948Z" fill="#92B4EA"/>
<path d="M1154.2 411.664H1306.48C1307.89 411.664 1309.03 410.537 1309.03 409.147V402.555C1309.03 401.166 1307.89 400.039 1306.48 400.039H1154.2C1152.8 400.039 1151.66 401.166 1151.66 402.555V409.147C1151.66 410.537 1152.8 411.664 1154.2 411.664Z" fill="#465884"/>
<path d="M539.625 319.545C539.625 319.545 551.965 276.644 556.554 277.607C561.142 278.57 525.365 373.839 522.609 373.237C519.853 372.635 539.625 319.545 539.625 319.545Z" fill="#465884"/>
<path d="M530.783 371.844C528.167 372.874 514.594 317.918 514.594 317.918C514.594 317.918 507.831 297.353 505.19 284.29C504.027 278.586 503.662 274.295 504.972 273.768C505.844 273.432 507.493 277.076 509.578 283.163C517.889 307.586 532.867 371.029 530.783 371.844Z" fill="#A37B90"/>
<path d="M539.741 377.931H514.246C512.594 377.931 511.186 376.72 510.929 375.074L504.392 333.104C504.072 331.053 505.647 329.199 507.709 329.199H546.28C548.342 329.199 549.915 331.053 549.597 333.104L543.059 375.074C542.801 376.72 541.395 377.931 539.741 377.931Z" fill="#B1A5B7"/>
<path d="M509.576 283.165L505.19 284.29C504.027 278.586 503.662 274.295 504.972 273.768C505.844 273.433 507.491 277.077 509.576 283.165Z" fill="#F7B369"/>
<path d="M445.621 415.165H589.082C594.223 415.165 598.392 411.043 598.392 405.958V405.501C598.392 400.416 594.223 396.294 589.082 396.294H445.621V415.165Z" fill="#B1A5B7"/>
<path d="M445.889 415.165H537.844C542.695 415.165 546.626 411.278 546.626 406.481V404.976C546.626 400.18 542.695 396.293 537.844 396.293H445.889C444.162 396.293 442.763 397.676 442.763 399.383V412.074C442.763 413.782 444.162 415.165 445.889 415.165Z" fill="#C8BCCE"/>
<path d="M442.763 411.52H536.422C539.722 411.52 542.398 408.874 542.398 405.611V405.447C542.398 402.183 539.722 399.537 536.422 399.537H442.763V411.52Z" fill="#ECE8EF"/>
<path d="M562.056 396.293H474.569C469.442 396.293 465.286 392.183 465.286 387.113C465.286 382.042 469.442 377.933 474.569 377.933H562.056C563.661 377.933 564.962 379.22 564.962 380.807V393.42C564.962 395.006 563.661 396.293 562.056 396.293Z" fill="#ECE8EF"/>
<path d="M583.39 396.293H495.904C490.777 396.293 486.621 392.183 486.621 387.113C486.621 382.042 490.777 377.933 495.904 377.933H583.391C584.996 377.933 586.298 379.22 586.298 380.807V393.42C586.296 395.006 584.995 396.293 583.39 396.293Z" fill="#C8BCCE"/>
<path d="M586.296 392.747H496.571C493.316 392.747 490.678 390.138 490.678 386.919C490.678 383.7 493.316 381.091 496.571 381.091H586.296V392.747Z" fill="white"/>
<path d="M270.316 324.019C270.316 324.019 252.671 314.099 236.591 312.773C220.51 311.448 206.44 314.54 206.44 314.54L210.237 328.615L270.316 324.019Z" fill="#EEEDEF"/>
<path d="M267.859 323.89C267.859 323.89 276.347 317.07 293.767 313.756C311.189 310.443 327.715 310.845 327.715 310.845L330.842 326.965L267.859 323.89Z" fill="#EEEDEF"/>
<path d="M348.033 413.76H218.884L203.688 321.905H332.858L348.033 413.76Z" fill="#C8BCCE"/>
<path d="M288.735 413.76H277.498L262.986 321.905H273.78L288.735 413.76Z" fill="#DDD5E2"/>
<path d="M348.041 414.758H218.877C218.322 414.758 217.873 414.312 217.873 413.764C217.873 413.216 218.322 412.771 218.877 412.771H348.041C348.595 412.771 349.045 413.217 349.045 413.764C349.046 414.312 348.597 414.758 348.041 414.758Z" fill="#B1A5B7"/>
<path d="M313.197 414.758C312.722 414.758 312.301 414.424 312.21 413.945L310.017 402.236C309.824 401.199 308.908 400.446 307.843 400.446H253.854C253.222 400.446 252.618 400.717 252.197 401.186C251.776 401.656 251.58 402.283 251.658 402.903L253 413.642C253.068 414.188 252.676 414.682 252.125 414.751C251.582 414.802 251.073 414.43 251.004 413.887L249.662 403.148C249.515 401.961 249.889 400.766 250.69 399.869C251.491 398.973 252.644 398.46 253.853 398.46H307.841C309.876 398.46 311.622 399.896 311.993 401.876L314.186 413.585C314.287 414.125 313.927 414.642 313.38 414.743C313.32 414.752 313.259 414.758 313.197 414.758Z" fill="#B1A5B7"/>
<path d="M1154.72 328.944H1112.06C1111.51 328.944 1111.06 328.498 1111.06 327.951C1111.06 327.402 1111.51 326.958 1112.06 326.958H1154.72C1155.28 326.958 1155.73 327.404 1155.73 327.951C1155.73 328.498 1155.28 328.944 1154.72 328.944Z" fill="white"/>
<path d="M696.283 195.883C696.283 195.883 674.461 187.759 663.679 206.28C652.898 224.801 655.316 269.76 655.316 269.76L693.142 268.551L696.283 195.883Z" fill="black"/>
<path d="M716.291 199.013C716.291 199.013 730.498 184.522 744.634 199.828C758.77 215.134 763.078 261.837 763.078 261.837L726.913 265.827L716.291 199.013Z" fill="black"/>
<path d="M753.819 401.619C753.819 401.619 806.604 423.886 814.388 383.393C824.333 331.666 758.986 274.177 758.986 274.177L753.819 401.619Z" fill="#465884"/>
<path d="M720.515 257.364C720.515 257.364 723.299 258.12 727.432 259.444L698.861 261.111C698.861 261.111 695.015 298.431 693.622 341.232C692.645 371.562 693.447 395.07 694.139 408.424L651.122 405.358C651.122 405.358 651.504 284.111 666.711 270.925C681.918 257.74 702.879 257.593 702.879 257.593L720.515 257.364Z" fill="#465884"/>
<path d="M764.33 413.867L741.674 413.348C742.951 397.088 742.662 368.056 738.686 329.419C733.614 280.272 729.956 260.977 729.456 260.357C740.352 263.827 758.583 270.354 762.302 278.365C767.431 289.449 764.33 413.867 764.33 413.867Z" fill="#465884"/>
<path d="M763.078 318.391C763.078 318.391 762.893 342.685 774.728 344.011C795.285 346.315 796.915 306.013 796.915 306.013L763.078 318.391Z" fill="#F48462"/>
<path d="M699.277 239.135L698.507 262.505C698.507 262.505 702.547 269.361 716.334 270.918C726.606 272.078 730.04 266.952 730.04 266.952L728.22 246.422L703.435 240.187L699.277 239.135Z" fill="#F48462"/>
<path d="M703.436 240.185C703.475 240.825 703.696 241.586 704.049 242.462C708.951 254.307 723.325 257.289 729.256 258.009L728.221 246.421L703.436 240.185Z" fill="black"/>
<path d="M735.246 193.323C735.246 193.323 746.682 223.024 741.257 239.145C735.831 255.267 720.9 251.977 712.045 248.389C703.19 244.801 699.275 239.138 699.275 239.138C699.275 239.138 690.722 241.559 685.471 233.552C680.219 225.546 684.118 216.824 689.022 215.017C693.926 213.21 699.473 216.912 699.473 216.912L695.407 208.245C695.404 208.247 716.337 166.182 735.246 193.323Z" fill="#F48462"/>
<path d="M697.904 229.375C697.662 229.375 697.419 229.29 697.225 229.114L688.166 220.915C687.757 220.544 687.728 219.916 688.103 219.511C688.479 219.107 689.113 219.078 689.522 219.449L698.581 227.648C698.991 228.019 699.019 228.647 698.645 229.052C698.447 229.267 698.177 229.375 697.904 229.375Z" fill="black"/>
<path d="M688.398 228.832C688.006 228.832 687.636 228.604 687.471 228.225C687.257 227.719 687.494 227.136 688.006 226.923L694.097 224.375C694.604 224.162 695.197 224.396 695.414 224.902C695.629 225.408 695.391 225.991 694.88 226.205L688.788 228.754C688.662 228.807 688.528 228.832 688.398 228.832Z" fill="black"/>
<path d="M699.472 216.914C699.472 216.914 709.854 216.393 716.791 208.308C723.728 200.222 727.213 191.781 727.213 191.781C727.213 191.781 731.544 192.713 734.168 196.288C736.098 198.917 738.331 202.708 738.331 202.708C738.331 202.708 739.154 190.941 733.448 184.87C727.741 178.798 722.499 180.553 722.499 180.553C722.499 180.553 709.712 172.518 695.754 183.591C681.795 194.666 687.019 216.202 687.019 216.202C687.019 216.202 693.924 213.863 699.472 216.914Z" fill="black"/>
<path d="M733.201 229.087C733.103 229.087 733.002 229.073 732.904 229.043C732.374 228.881 732.077 228.325 732.242 227.8C733.929 222.403 729.84 218.794 729.665 218.643C729.247 218.283 729.203 217.656 729.566 217.243C729.932 216.827 730.563 216.784 730.979 217.14C731.195 217.324 736.243 221.727 734.161 228.389C734.03 228.812 733.631 229.087 733.201 229.087Z" fill="black"/>
<path d="M738.266 218.886C737.777 218.886 737.347 218.531 737.274 218.036L736.129 210.349C736.086 210.049 736.181 209.746 736.392 209.523L737.954 207.875C738.334 207.474 738.968 207.454 739.373 207.829C739.778 208.204 739.8 208.834 739.419 209.234L738.189 210.534L739.262 217.749C739.343 218.291 738.962 218.796 738.413 218.877C738.364 218.881 738.315 218.886 738.266 218.886Z" fill="black"/>
<path d="M721.25 220.363C720.751 220.363 720.319 219.997 720.256 219.496L719.245 211.664C719.211 211.396 719.287 211.127 719.456 210.916L721.274 208.67C721.624 208.241 722.259 208.174 722.686 208.516C723.12 208.859 723.191 209.485 722.844 209.912L721.292 211.829L722.247 219.243C722.318 219.788 721.929 220.285 721.378 220.355C721.336 220.361 721.293 220.363 721.25 220.363Z" fill="black"/>
<path d="M738.686 204.948H733.652C733.098 204.948 732.648 204.503 732.648 203.955C732.648 203.406 733.099 202.961 733.652 202.961H738.686C739.241 202.961 739.69 203.406 739.69 203.955C739.69 204.503 739.241 204.948 738.686 204.948Z" fill="black"/>
<path d="M716.343 206.011C715.846 206.011 715.415 205.647 715.349 205.147C715.275 204.603 715.663 204.103 716.214 204.031L724.333 202.968C724.895 202.901 725.388 203.279 725.462 203.823C725.535 204.368 725.148 204.868 724.597 204.939L716.477 206.002C716.433 206.008 716.386 206.011 716.343 206.011Z" fill="black"/>
<path d="M725.495 240.127C725.011 240.127 724.532 240.048 724.078 239.86C721.359 238.742 720.281 233.897 720.166 233.349C720.091 232.987 720.225 232.614 720.513 232.38C720.802 232.147 721.199 232.09 721.544 232.235L730.717 236.083C731.041 236.218 731.269 236.512 731.319 236.855C731.37 237.198 731.234 237.543 730.964 237.764C730.619 238.043 727.978 240.127 725.495 240.127ZM722.698 234.877C723.21 236.265 723.97 237.663 724.851 238.026C725.723 238.387 727.107 237.847 728.24 237.203L722.698 234.877Z" fill="black"/>
<path d="M687.215 215.325C686.847 215.325 686.494 215.125 686.317 214.78C681.944 206.267 686.124 197.28 686.304 196.902C686.539 196.405 687.139 196.193 687.64 196.426C688.143 196.659 688.359 197.251 688.124 197.747C688.084 197.831 684.187 206.249 688.11 213.88C688.36 214.368 688.163 214.967 687.669 215.216C687.523 215.289 687.368 215.325 687.215 215.325Z" fill="#F7B369"/>
<path d="M716.76 271.879C711.156 271.879 704.448 269.901 697.79 263.2C697.4 262.81 697.406 262.18 697.802 261.795C698.197 261.409 698.837 261.415 699.223 261.808C714.21 276.886 729.295 266.258 729.446 266.15C729.896 265.824 730.523 265.924 730.851 266.364C731.178 266.807 731.082 267.428 730.635 267.753C730.537 267.823 724.78 271.879 716.76 271.879Z" fill="white"/>
<path d="M786.412 288.481C786.412 288.481 771.553 278.907 768.622 283.464C765.691 288.021 777.516 294.978 777.516 294.978L786.412 288.481Z" fill="#F48462"/>
<path d="M773.735 288.255C773.735 288.255 784.436 251.049 788.416 251.886C792.396 252.722 761.369 335.34 758.979 334.817C756.589 334.294 773.735 288.255 773.735 288.255Z" fill="#92B4EA"/>
<path d="M788.736 288.156C788.736 288.156 763.807 291.267 758.965 297.268C754.123 303.268 761.108 304.522 761.108 304.522C761.108 304.522 752.539 308.276 753.985 312.122C755.43 315.968 761.361 313.818 761.361 313.818C761.361 313.818 756.176 319.146 759.303 322.314C762.43 325.481 789.564 323.464 793.935 319.427C798.305 315.39 791.503 311.085 791.503 311.085C791.503 311.085 799.349 305.747 798.104 301.873C796.857 298.002 789.639 297.896 789.639 297.896C789.639 297.896 798.726 289.264 788.736 288.156Z" fill="#F48462"/>
<path d="M761.108 305.514C760.664 305.514 760.259 305.224 760.138 304.78C759.991 304.252 760.308 303.705 760.844 303.562L786.149 296.759C786.68 296.618 787.237 296.929 787.381 297.457C787.528 297.986 787.211 298.533 786.675 298.676L761.37 305.479C761.283 305.504 761.194 305.514 761.108 305.514Z" fill="black"/>
<path d="M762.981 316.367C762.527 316.367 762.113 316.061 762.004 315.605C761.876 315.07 762.21 314.535 762.749 314.406L786.24 308.87C786.779 308.746 787.324 309.073 787.452 309.607C787.58 310.141 787.246 310.677 786.707 310.805L763.216 316.341C763.138 316.359 763.059 316.367 762.981 316.367Z" fill="black"/>
<path d="M927.073 415.976H803.745C797.761 415.976 792.909 411.178 792.909 405.26V405.066C792.909 399.148 797.761 394.35 803.745 394.35H927.073C929.203 394.35 930.929 396.057 930.929 398.164V412.16C930.929 414.269 929.203 415.976 927.073 415.976Z" fill="#B1A5B7"/>
<path d="M943.814 416.204H835.32C829.686 416.204 825.118 411.688 825.118 406.116V404.669C825.118 399.097 829.686 394.581 835.32 394.581H943.814C945.82 394.581 947.446 396.188 947.446 398.172V412.616C947.446 414.597 945.82 416.204 943.814 416.204Z" fill="#C8BCCE"/>
<path d="M947.446 412.029H837.039C833.205 412.029 830.098 408.955 830.098 405.163C830.098 401.371 833.206 398.297 837.039 398.297H947.446V412.029Z" fill="white"/>
<path d="M803.422 394.752H925.463C931.501 394.752 936.398 389.911 936.398 383.939C936.398 377.967 931.502 373.126 925.463 373.126H803.422C803.264 373.126 803.136 373.253 803.136 373.408V394.467C803.136 394.625 803.264 394.752 803.422 394.752Z" fill="#C8BCCE"/>
<path d="M800.542 394.752H894.891C900.93 394.752 905.825 389.911 905.825 383.939C905.825 377.967 900.93 373.126 894.891 373.126H800.542C798.651 373.126 797.12 374.642 797.12 376.511V391.366C797.12 393.236 798.653 394.752 800.542 394.752Z" fill="#ECE8EF"/>
<path d="M797.12 390.575H894.46C898.295 390.575 901.403 387.502 901.403 383.71C901.403 379.918 898.295 376.844 894.46 376.844H797.12V390.575Z" fill="white"/>
<path d="M1093.33 412.462H1191.41C1197.45 412.462 1202.34 407.621 1202.34 401.649C1202.34 395.678 1197.45 390.836 1191.41 390.836H1093.33C1092.64 390.836 1092.08 391.389 1092.08 392.07V411.225C1092.08 411.909 1092.64 412.462 1093.33 412.462Z" fill="#B1A5B7"/>
<path d="M1090.22 412.462H1166.12C1172.15 412.462 1177.05 407.621 1177.05 401.649C1177.05 395.678 1172.16 390.836 1166.12 390.836H1090.22C1088.5 390.836 1087.11 392.214 1087.11 393.916V409.383C1087.11 411.084 1088.5 412.462 1090.22 412.462Z" fill="#C8BCCE"/>
<path d="M1087.11 408.287H1166.45C1170.28 408.287 1173.39 405.213 1173.39 401.421C1173.39 397.629 1170.28 394.555 1166.45 394.555H1087.11V408.287Z" fill="#ECE8EF"/>
<path d="M732.636 323.268L783.71 337.531L766.748 416.465L711.826 411.063L732.636 323.268Z" fill="#EF9F50"/>
<path d="M741.13 325.722L792.201 339.986L778.691 417.821L720.856 411.251L741.13 325.722Z" fill="#F7B369"/>
<path d="M689.012 364.91C689.012 364.91 727.35 351.244 737.651 353.468C747.951 355.693 743.771 387.885 741.489 393.974C739.206 400.063 697.715 397.89 697.715 397.89L684.074 383.77L689.012 364.91Z" fill="#F48462"/>
<path d="M737.651 353.468C737.651 353.468 763.318 365.183 765.38 374.634C767.442 384.086 735.745 368.575 735.745 368.575L737.651 353.468Z" fill="#F48462"/>
<path d="M726.76 394.842C726.76 394.842 707.137 402.33 714.172 406.568C721.207 410.806 740.153 399.152 741.489 393.974C742.824 388.796 727.445 384.965 727.445 384.965L726.76 394.842Z" fill="#F48462"/>
<path d="M718.76 399.274C718.443 399.274 718.14 399.125 717.948 398.869C717.726 398.568 717.692 398.172 717.858 397.839L720.444 392.677C720.692 392.184 721.292 391.986 721.79 392.227C722.289 392.471 722.49 393.068 722.245 393.559L720.522 396.999L724.891 396.32C725.444 396.245 725.953 396.605 726.041 397.147C726.127 397.69 725.753 398.198 725.204 398.285L718.915 399.262C718.863 399.271 718.812 399.274 718.76 399.274Z" fill="black"/>
<path d="M744.652 372.09C744.428 372.09 744.205 372.018 744.019 371.869C741.19 369.599 736.105 365.894 734.5 365.612C733.954 365.517 733.589 365.001 733.687 364.459C733.784 363.919 734.305 363.557 734.853 363.656C737.438 364.107 743.999 369.29 745.287 370.325C745.718 370.671 745.784 371.298 745.435 371.723C745.232 371.965 744.943 372.09 744.652 372.09Z" fill="black"/>
<path d="M743.67 383.439C743.483 383.439 743.291 383.388 743.123 383.278L730.298 375.007C729.832 374.708 729.701 374.091 730.005 373.632C730.306 373.173 730.929 373.038 731.396 373.343L744.221 381.614C744.686 381.913 744.817 382.53 744.513 382.989C744.32 383.281 744 383.439 743.67 383.439Z" fill="black"/>
<path d="M671.152 267.528C671.152 267.528 609.021 301.12 607.06 365.474C605.387 420.391 699.812 407.824 699.812 407.824L703.681 358.261L662.313 345.302L671.152 267.528Z" fill="#465884"/>
<path d="M664.741 347.308C664.686 347.308 664.63 347.304 664.575 347.294C663.119 347.053 650.279 344.786 647.917 339.701C647.301 338.372 647.422 336.938 648.268 335.556C649.325 333.825 650.723 333.441 651.71 333.423C657.258 333.423 664.744 344.502 665.583 345.771C665.8 346.101 665.8 346.527 665.583 346.859C665.395 347.141 665.075 347.308 664.741 347.308ZM651.785 335.409C651.292 335.418 650.619 335.549 649.987 336.582C649.481 337.412 649.405 338.138 649.743 338.869C651.088 341.762 658.052 343.87 662.502 344.859C659.362 340.586 654.627 335.409 651.785 335.409Z" fill="white"/>
<path d="M682.967 354.613C682.84 354.613 682.713 354.59 682.589 354.54L664.364 347.235C663.849 347.029 663.601 346.449 663.809 345.942C664.019 345.431 664.604 345.188 665.117 345.393L683.343 352.697C683.857 352.904 684.105 353.484 683.898 353.991C683.739 354.378 683.363 354.613 682.967 354.613Z" fill="white"/>
</svg>
